HIERARCHY
ROOT Hips
{
  OFFSET 53.2049 85.7957 7.35022
  CHANNELS 6 Xposition Yposition Zposition Zrotation Xrotation Yrotation
  JOINT spine
  {
    OFFSET 0 6.3926 0.367606
    CHANNELS 3 Zrotation Xrotation Yrotation
    JOINT spine1
    {
      OFFSET 0 9.17611 0
      CHANNELS 3 Zrotation Xrotation Yrotation
      JOINT spine2
      {
        OFFSET 0 8.79238 0
        CHANNELS 3 Zrotation Xrotation Yrotation
        JOINT Neck
        {
          OFFSET 0 22.5737 1.07624
          CHANNELS 3 Zrotation Xrotation Yrotation
          JOINT Head
          {
            OFFSET 0 6.82011 0
            CHANNELS 3 Zrotation Xrotation Yrotation
            End Site
            {
              OFFSET 0 16.5085 -5.44427
            }
          }
        }
        JOINT RightShoulder
        {
          OFFSET -3.70221 9.49509 -0.515508
          CHANNELS 3 Zrotation Xrotation Yrotation
          JOINT RightArm
          {
            OFFSET 0 12.4537 0
            CHANNELS 3 Zrotation Xrotation Yrotation
            JOINT RightArmRoll
            {
              OFFSET 0 6.28686 0
              CHANNELS 3 Zrotation Xrotation Yrotation
              JOINT RightForeArm
              {
                OFFSET 0 18.3114 0
                CHANNELS 3 Zrotation Xrotation Yrotation
                JOINT RightForeArmRoll
                {
                  OFFSET 0 7.05482 0
                  CHANNELS 3 Zrotation Xrotation Yrotation
                  JOINT RightHand
                  {
                    OFFSET 0 14.1575 0
                    CHANNELS 3 Zrotation Xrotation Yrotation
                    End Site
                    {
                      OFFSET 0 0 0
                    }
                  }
                }
              }
            }
          }
        }
        JOINT LeftShoulder
        {
          OFFSET 3.70221 9.49509 -0.515508
          CHANNELS 3 Zrotation Xrotation Yrotation
          JOINT LeftArm
          {
            OFFSET 0 12.4537 0
            CHANNELS 3 Zrotation Xrotation Yrotation
            JOINT LeftArmRoll
            {
              OFFSET 0 6.28685 0
              CHANNELS 3 Zrotation Xrotation Yrotation
              JOINT LeftForeArm
              {
                OFFSET 0 18.3114 0
                CHANNELS 3 Zrotation Xrotation Yrotation
                JOINT LeftForeArmRoll
                {
                  OFFSET 0 7.05482 0
                  CHANNELS 3 Zrotation Xrotation Yrotation
                  JOINT LeftHand
                  {
                    OFFSET 0 14.1575 0
                    CHANNELS 3 Zrotation Xrotation Yrotation
                    End Site
                    {
                      OFFSET 0 0 0
                    }
                  }
                }
              }
            }
          }
        }
      }
    }
  }
  JOINT RightUpLeg
  {
    OFFSET -5.66616 -1.03903 -0.87161
    CHANNELS 3 Zrotation Xrotation Yrotation
    JOINT RightUpLegRoll
    {
      OFFSET 0 16.6005 0
      CHANNELS 3 Zrotation Xrotation Yrotation
      JOINT RightLeg
      {
        OFFSET 0 -20.5572 0
        CHANNELS 3 Zrotation Xrotation Yrotation
        JOINT RightLegRoll
        {
          OFFSET 0 20.6244 0
          CHANNELS 3 Zrotation Xrotation Yrotation
          JOINT RightFoot
          {
            OFFSET 0 17.1664 0
            CHANNELS 3 Zrotation Xrotation Yrotation
            JOINT RightToeBase
            {
              OFFSET 0 14.3502 0
              CHANNELS 3 Zrotation Xrotation Yrotation
              End Site
              {
                OFFSET 0.00608252 6.9497 -0.801061
              }
            }
          }
        }
      }
    }
  }
  JOINT LeftUpLeg
  {
    OFFSET 5.66616 -1.03903 -0.87161
    CHANNELS 3 Zrotation Xrotation Yrotation
    JOINT LeftUpLegRoll
    {
      OFFSET 0 16.6006 0
      CHANNELS 3 Zrotation Xrotation Yrotation
      JOINT LeftLeg
      {
        OFFSET 0 20.5571 0
        CHANNELS 3 Zrotation Xrotation Yrotation
        JOINT LeftLegRoll
        {
          OFFSET 0 20.8151 0
          CHANNELS 3 Zrotation Xrotation Yrotation
          JOINT LeftFoot
          {
            OFFSET 0 16.9757 0
            CHANNELS 3 Zrotation Xrotation Yrotation
            JOINT LeftToeBase
            {
              OFFSET 0 14.3502 0
              CHANNELS 3 Zrotation Xrotation Yrotation
              End Site
              {
                OFFSET -0.0272592 6.94971 -0.801061
              }
            }
          }
        }
      }
    }
  }
}
MOTION
Frames: 13
Frame Time: 0.00208333
52.5313 85.6311 6.73593 -1.96489 -6.01989 0.298602 -0.0186946 -0.901698 -0.0766932 -0.037935 2.19943 -0.145579 -0.0362479 3.8445 -0.145036 -0.811462 11.5029 -1.22425 -1.20714 2.71952 -1.57664 54.7043 4.69065 3.68423 116.986 22.5726 -60.3148 -6.07836e-006 -3.28499e-006 -7.0943e-006 -152.088 67.2624 130.559 1.87105e-005 -8.42243e-007 -3 8.02885 -4.95145 0.697693 -49.3685 0.794074 -1.86247 -116.922 26.663 38.4928 -1.89201e-006 -1.88498e-006 3.34695e-006 165.312 77.437 -153.126 -1.07784e-005 -2.91131e-006 3.00301 -8.02889 -4.95146 -0.697687 176.929 -5.22744 0.133113 180 7.01515e-015 178.791 177.768 5.03783 179.722 2.79087e-006 2.9299e-007 0.0413382 -18.6309 67.8312 19.4023 8.13649 25.2326 -3.48773 -171.37 -3.44241 -2.05879 4.54188e-006 -4.6773e-006 -1.04858 -1.34925 -8.7354 0.552015 -6.59728e-007 -4.95465e-006 -0.000451501 17.3829 69.2071 -20.5018 -8.13658 25.2339 3.48614 
52.5336 85.6302 6.72923 -1.97102 -6.00838 0.303432 -0.0191716 -0.903786 -0.074897 -0.0389464 2.19526 -0.142167 -0.0372998 3.84033 -0.141605 -0.75034 11.5402 -1.23991 -1.2643 2.61711 -1.57833 54.7194 4.46938 3.53561 117.023 22.612 -60.5751 -6.07836e-006 -3.28499e-006 -7.0943e-006 -151.87 67.3481 130.359 1.87105e-005 -8.42243e-007 -3 8.02885 -4.95145 0.697693 -49.366 0.754328 -1.83343 -116.896 26.6121 38.5168 -1.89201e-006 -1.88498e-006 3.34695e-006 165.245 77.5677 -153.091 -1.07784e-005 -2.91131e-006 3.00301 -8.02889 -4.95146 -0.697687 176.943 -5.22016 0.11843 180 7.01515e-015 178.791 177.78 5.03272 179.721 2.79087e-006 2.9299e-007 0.0413382 -18.6331 67.8339 19.4046 8.13649 25.2326 -3.48773 -171.363 -3.42281 -2.06094 4.54188e-006 -4.6773e-006 -1.04845 -1.34794 -8.74847 0.552152 -6.59728e-007 -4.95465e-006 -0.000607045 17.3797 69.212 -20.5059 -8.13658 25.2339 3.48614 
52.5313 85.6312 6.736 -1.97771 -5.99509 0.308552 -0.0199396 -0.906746 -0.0728954 -0.0405465 2.18934 -0.138366 -0.0389452 3.83441 -0.137776 -0.678686 11.588 -1.25806 -1.33049 2.50542 -1.57991 54.7396 4.23772 3.37903 117.078 22.6739 -60.8437 -6.07836e-006 -3.28499e-006 -7.0943e-006 -151.628 67.4563 130.154 1.87105e-005 -8.42243e-007 -3 8.02885 -4.95145 0.697693 -49.3606 0.724193 -1.81199 -116.868 26.5605 38.525 -1.89201e-006 -1.88498e-006 3.34695e-006 165.177 77.7097 -153.064 -1.07784e-005 -2.91131e-006 3.00301 -8.02889 -4.95146 -0.697687 176.959 -5.21121 0.102191 180 7.01515e-015 178.791 177.795 5.02724 179.719 2.79087e-006 2.9299e-007 0.0413382 -18.6355 67.8368 19.4072 8.13649 25.2326 -3.48773 -171.355 -3.40061 -2.06323 4.54188e-006 -4.6773e-006 -1.04833 -1.34658 -8.76283 0.552276 -6.59728e-007 -4.95465e-006 -0.00076293 17.3763 69.2174 -20.5104 -8.13658 25.2339 3.48614 
52.5344 85.6268 6.73629 -1.9848 -5.98017 0.313808 -0.0209652 -0.910503 -0.0707496 -0.0426635 2.18183 -0.134297 -0.0411111 3.8269 -0.133669 -0.598407 11.6449 -1.27816 -1.40413 2.38643 -1.58132 54.7637 3.99922 3.2171 117.146 22.7536 -61.1177 -6.07836e-006 -3.28499e-006 -7.0943e-006 -151.365 67.5825 129.943 1.87105e-005 -8.42243e-007 -3 8.02885 -4.95145 0.697693 -49.353 0.702544 -1.7972 -116.839 26.5079 38.5188 -1.89201e-006 -1.88498e-006 3.34695e-006 165.11 77.8599 -153.044 -1.07784e-005 -2.91131e-006 3.00301 -8.02889 -4.95146 -0.697687 176.975 -5.20064 0.0847997 180 7.01515e-015 178.791 177.81 5.02159 179.718 2.79087e-006 2.9299e-007 0.0413382 -18.638 67.8398 19.4099 8.13649 25.2326 -3.48773 -171.347 -3.37621 -2.06561 4.54188e-006 -4.6773e-006 -1.0482 -1.34523 -8.77807 0.552385 -6.59728e-007 -4.95465e-006 -0.000918645 17.3727 69.2231 -20.5152 -8.13658 25.2339 3.48614 
52.5305 85.6265 6.72738 -1.99212 -5.96375 0.319043 -0.0222151 -0.914981 -0.0685204 -0.0452259 2.17288 -0.130079 -0.0437244 3.81794 -0.129406 -0.511415 11.7095 -1.29968 -1.48367 2.26212 -1.58251 54.7901 3.75745 3.05244 117.225 22.8466 -61.3941 -6.07836e-006 -3.28499e-006 -7.0943e-006 -151.087 67.7227 129.728 1.87105e-005 -8.42243e-007 -3 8.02885 -4.95145 0.697693 -49.3441 0.688254 -1.78809 -116.806 26.4539 38.4996 -1.89201e-006 -1.88498e-006 3.34695e-006 165.045 78.0152 -153.03 -1.07784e-005 -2.91131e-006 3.00301 -8.02889 -4.95146 -0.697687 176.993 -5.18848 0.0666584 180 7.01515e-015 178.791 177.826 5.01587 179.716 2.79087e-006 2.9299e-007 0.0413382 -18.6406 67.843 19.4126 8.13649 25.2326 -3.48773 -171.338 -3.34999 -2.06799 4.54188e-006 -4.6773e-006 -1.04808 -1.34391 -8.79377 0.552475 -6.59728e-007 -4.95465e-006 -0.00107368 17.3691 69.229 -20.5202 -8.13658 25.2339 3.48614 
52.5307 85.6313 6.73113 -1.99951 -5.94597 0.324104 -0.023656 -0.920105 -0.066269 -0.0481622 2.16263 -0.125832 -0.0467121 3.80769 -0.125108 -0.419622 11.7805 -1.32208 -1.56752 2.13448 -1.58342 54.8175 3.51598 2.88764 117.309 22.9487 -61.6699 -6.07836e-006 -3.28499e-006 -7.0943e-006 -150.798 67.8726 129.51 1.87105e-005 -8.42243e-007 -3 8.02885 -4.95145 0.697693 -49.3347 0.680196 -1.78369 -116.771 26.3981 38.4689 -1.89201e-006 -1.88498e-006 3.34695e-006 164.982 78.1725 -153.02 -1.07784e-005 -2.91131e-006 3.00301 -8.02889 -4.95146 -0.697687 177.01 -5.17477 0.04817 180 7.01515e-015 178.791 177.842 5.01027 179.714 2.79087e-006 2.9299e-007 0.0413382 -18.6431 67.8461 19.4153 8.13649 25.2326 -3.48773 -171.33 -3.32236 -2.07029 4.54188e-006 -4.6773e-006 -1.04797 -1.34267 -8.80951 0.552541 -6.59728e-007 -4.95465e-006 -0.00122751 17.3656 69.2348 -20.5253 -8.13658 25.2339 3.48614 
52.5303 85.6292 6.73294 -2.00681 -5.92696 0.328836 -0.0252547 -0.9258 -0.0640562 -0.0514011 2.15124 -0.121677 -0.0500016 3.79631 -0.120896 -0.324947 11.8563 -1.34484 -1.65413 2.0055 -1.58398 54.8448 3.27838 2.72531 117.396 23.0557 -61.9419 -6.07836e-006 -3.28499e-006 -7.0943e-006 -150.502 68.028 129.291 1.87105e-005 -8.42243e-007 -3 8.02885 -4.95145 0.697693 -49.3255 0.677245 -1.78306 -116.733 26.3402 38.4283 -1.89201e-006 -1.88498e-006 3.34695e-006 164.922 78.3286 -153.015 -1.07784e-005 -2.91131e-006 3.00301 -8.02889 -4.95146 -0.697687 177.027 -5.15953 0.0297373 180 7.01515e-015 178.791 177.857 5.00488 179.713 2.79087e-006 2.9299e-007 0.0413382 -18.6456 67.8491 19.418 8.13649 25.2326 -3.48773 -171.322 -3.29373 -2.07243 4.54188e-006 -4.6773e-006 -1.04785 -1.34154 -8.82488 0.552581 -6.59728e-007 -4.95465e-006 -0.00137964 17.3623 69.2405 -20.5303 -8.13658 25.2339 3.48614 
52.5312 85.6332 6.7322 -2.01386 -5.90688 0.333084 -0.0269781 -0.931992 -0.0619431 -0.0548714 2.13887 -0.117733 -0.0535201 3.78392 -0.116891 -0.229313 11.9356 -1.36741 -1.74191 1.87717 -1.58414 54.8707 3.04822 2.56802 117.48 23.1635 -62.2069 -6.07836e-006 -3.28499e-006 -7.0943e-006 -150.205 68.1847 129.074 1.87105e-005 -8.42243e-007 -3 8.02885 -4.95145 0.697693 -49.3173 0.678274 -1.78523 -116.691 26.2799 38.379 -1.89201e-006 -1.88498e-006 3.34695e-006 164.865 78.4805 -153.013 -1.07784e-005 -2.91131e-006 3.00301 -8.02889 -4.95146 -0.697687 177.043 -5.1428 0.0117628 180 7.01515e-015 178.791 177.873 4.99986 179.711 2.79087e-006 2.9299e-007 0.0413382 -18.6479 67.8519 19.4205 8.13649 25.2326 -3.48773 -171.314 -3.26448 -2.07434 4.54188e-006 -4.6773e-006 -1.04774 -1.34058 -8.83945 0.552591 -6.59728e-007 -4.95465e-006 -0.00152954 17.3594 69.246 -20.5352 -8.13658 25.2339 3.48614 
52.5384 85.6324 6.73686 -2.02048 -5.88585 0.336693 -0.0287928 -0.938605 -0.0599906 -0.0585019 2.12564 -0.11412 -0.0571951 3.7707 -0.113216 -0.134647 12.0171 -1.38925 -1.82929 1.75146 -1.58385 54.8944 2.82909 2.41835 117.559 23.2681 -62.4616 -6.07836e-006 -3.28499e-006 -7.0943e-006 -149.912 68.3386 128.86 1.87105e-005 -8.42243e-007 -3 8.02885 -4.95145 0.697693 -49.3108 0.682155 -1.78923 -116.644 26.2168 38.3226 -1.89201e-006 -1.88498e-006 3.34695e-006 164.812 78.625 -153.012 -1.07784e-005 -2.91131e-006 3.00301 -8.02889 -4.95146 -0.697687 177.059 -5.12462 -0.00535073 180 7.01515e-015 178.791 177.887 4.9954 179.71 2.79087e-006 2.9299e-007 0.0413382 -18.65 67.8545 19.4227 8.13649 25.2326 -3.48773 -171.307 -3.23502 -2.07594 4.54188e-006 -4.6773e-006 -1.04764 -1.33981 -8.85282 0.552567 -6.59728e-007 -4.95465e-006 -0.00167672 17.357 69.2509 -20.5397 -8.13658 25.2339 3.48614 
52.537 85.6313 6.73566 -2.02653 -5.86401 0.339509 -0.0306659 -0.945564 -0.0582598 -0.0622219 2.11173 -0.110958 -0.0609543 3.75678 -0.10999 -0.0428824 12.0992 -1.40983 -1.91471 1.63037 -1.58304 54.9146 2.62458 2.27888 117.626 23.366 -62.7024 -6.07836e-006 -3.28499e-006 -7.0943e-006 -149.629 68.4855 128.651 1.87105e-005 -8.42243e-007 -3 8.02885 -4.95145 0.697693 -49.3069 0.687763 -1.79411 -116.594 26.1505 38.2606 -1.89201e-006 -1.88498e-006 3.34695e-006 164.764 78.759 -153.013 -1.07784e-005 -2.91131e-006 3.00301 -8.02889 -4.95146 -0.697687 177.073 -5.10502 -0.0212008 180 7.01515e-015 178.791 177.9 4.9916 179.708 2.79087e-006 2.9299e-007 0.0413382 -18.6518 67.8567 19.4247 8.13649 25.2326 -3.48773 -171.3 -3.20574 -2.07715 4.54188e-006 -4.6773e-006 -1.04754 -1.33928 -8.86456 0.552506 -6.59728e-007 -4.95465e-006 -0.00182064 17.3551 69.2552 -20.5439 -8.13658 25.2339 3.48614 
52.5241 85.6277 6.72266 -2.03182 -5.8415 0.341376 -0.0325643 -0.952794 -0.0568116 -0.0659607 2.09727 -0.108368 -0.0647255 3.74233 -0.107336 0.0440415 12.1807 -1.4286 -1.99658 1.51589 -1.58165 54.9307 2.43828 2.15218 117.678 23.4533 -62.926 -6.07836e-006 -3.28499e-006 -7.0943e-006 -149.361 68.6212 128.451 1.87105e-005 -8.42243e-007 -3 8.02885 -4.95145 0.697693 -49.3063 0.693971 -1.79891 -116.538 26.0807 38.1944 -1.89201e-006 -1.88498e-006 3.34695e-006 164.721 78.8794 -153.014 -1.07784e-005 -2.91131e-006 3.00301 -8.02889 -4.95146 -0.697687 177.085 -5.08403 -0.035385 180 7.01515e-015 178.791 177.911 4.9886 179.707 2.79087e-006 2.9299e-007 0.0413382 -18.6533 67.8586 19.4263 8.13649 25.2326 -3.48773 -171.295 -3.17705 -2.07789 4.54188e-006 -4.6773e-006 -1.04744 -1.33904 -8.87425 0.552404 -6.59728e-007 -4.95465e-006 -0.00196081 17.3539 69.2588 -20.5475 -8.13658 25.2339 3.48614 
52.5295 85.6216 6.72547 -2.0362 -5.81846 0.342141 -0.0344549 -0.96022 -0.0557071 -0.0696476 2.08242 -0.106469 -0.0684368 3.72748 -0.105374 0.124181 12.2601 -1.44503 -2.07334 1.40999 -1.57963 54.9415 2.27376 2.04082 117.711 23.5266 -63.1287 -6.07836e-006 -3.28499e-006 -7.0943e-006 -149.113 68.7416 128.263 1.87105e-005 -8.42243e-007 -3 8.02885 -4.95145 0.697693 -49.3099 0.699651 -1.80267 -116.477 26.007 38.1254 -1.89201e-006 -1.88498e-006 3.34695e-006 164.684 78.983 -153.013 -1.07784e-005 -2.91131e-006 3.00301 -8.02889 -4.95146 -0.697687 177.095 -5.0617 -0.0475008 180 7.01515e-015 178.791 177.921 4.98658 179.706 2.79087e-006 2.9299e-007 0.0413382 -18.6544 67.8599 19.4275 8.13649 25.2326 -3.48773 -171.291 -3.14934 -2.07809 4.54188e-006 -4.6773e-006 -1.04735 -1.33911 -8.88149 0.552258 -6.59728e-007 -4.95465e-006 -0.0020967 17.3536 69.2614 -20.5504 -8.13658 25.2339 3.48614 
52.5256 85.6221 6.72381 -2.0395 -5.79503 0.341648 -0.0363047 -0.967767 -0.0550071 -0.0732125 2.06733 -0.105381 -0.0720165 3.71239 -0.104226 0.195589 12.336 -1.45857 -2.14342 1.31467 -1.57691 54.9464 2.13464 1.94737 117.719 23.5824 -63.307 -6.07836e-006 -3.28499e-006 -7.0943e-006 -148.893 68.8426 128.089 1.87105e-005 -8.42243e-007 -3 8.02885 -4.95145 0.697693 -49.3183 0.703677 -1.80443 -116.41 25.9292 38.0552 -1.89201e-006 -1.88498e-006 3.34695e-006 164.652 79.0667 -153.009 -1.07784e-005 -2.91131e-006 3.00301 -8.02889 -4.95146 -0.697687 177.102 -5.03805 -0.0571459 180 7.01515e-015 178.791 177.928 4.98565 179.705 2.79087e-006 2.9299e-007 0.0413382 -18.655 67.8607 19.4281 8.13649 25.2326 -3.48773 -171.288 -3.12301 -2.07766 4.54188e-006 -4.6773e-006 -1.04726 -1.33955 -8.88585 0.552063 -6.59728e-007 -4.95465e-006 -0.00222781 17.3542 69.263 -20.5526 -8.13658 25.2339 3.48614 
